# xmcd CD database file
#
# Track frame offsets:
#	182
#	14407
#	29645
#	45835
#	60197
#	79155
#	98522
#	113732
#	127535
#	145375
#	160280
#	177615
#
# Disc length: 2528 seconds
#
# Revision: 0
# Processed by: cddbd v1.5.2PL0 Copyright (c) Steve Scherf et al.
# Submitted via: CDex 1.51
#
DISCID=8e09de0c
DTITLE=Jakub Smolík - Az se ti bude jednou zdat
DYEAR=1900
DGENRE=Country
TTITLE0=Az se ti bude jednou zdat
TTITLE1=Zrychleny tep
TTITLE2=S laskou je lip
TTITLE3=Nebyl jsem ten pravy
TTITLE4=Princezna z kaluzi
TTITLE5=Blazen zarli
TTITLE6=Ma Jenny
TTITLE7=Trava zmirni pad
TTITLE8=Pak to prejde
TTITLE9=Madony
TTITLE10=Narkomani
TTITLE11=Zblazneni
EXTD=
EXTT0=
EXTT1=
EXTT2=
EXTT3=
EXTT4=
EXTT5=
EXTT6=
EXTT7=
EXTT8=
EXTT9=
EXTT10=
EXTT11=
PLAYORDER=
